<svg data-v-423bf9ae="" xmlns="http://www.w3.org/2000/svg" viewBox="0 0 349 90" class="iconLeft"><!----><!----><!----><g data-v-423bf9ae="" id="fb9ed94a-7e61-43b7-a6c3-05447bb71b89" fill="#FFFFFF" transform="matrix(5.449591167364901,0,0,5.449591167364901,113.15082757852268,-9.850133980844362)"><path d="M0.56 13.02L0.56 15.40L6.86 15.40L6.86 13.02L5.28 13.02L5.28 4.73L2.84 4.73L0.49 5.57L0.49 8.15L2.48 7.36L2.48 13.02ZM7.63 8.55C7.63 10.79 8.88 11.72 10.57 11.72C11.27 11.72 11.82 11.56 12.22 11.24L12.22 12.18C12.22 13.12 11.84 13.36 11.30 13.36C10.72 13.36 10.44 13.05 10.40 12.40L7.81 12.40C7.81 14.13 8.68 15.57 11.28 15.57C13.44 15.57 14.94 14.62 14.94 12.22L14.94 8.01C14.94 5.74 13.78 4.56 11.34 4.56C8.90 4.56 7.63 5.74 7.63 7.78ZM12.22 8.51C12.22 9.30 11.91 9.53 11.30 9.53C10.68 9.53 10.37 9.30 10.37 8.51L10.37 7.77C10.37 6.99 10.68 6.75 11.30 6.75C11.91 6.75 12.22 6.99 12.22 7.77ZM24.53 4.73L21.76 4.73L21.76 8.74L19.14 8.74L19.14 4.73L16.34 4.73L16.34 15.40L19.14 15.40L19.14 11.19L21.76 11.19L21.76 15.40L24.53 15.40ZM31.11 11.37L31.11 11.75C31.11 12.61 30.67 12.95 30.04 12.95C29.33 12.95 28.94 12.61 28.94 11.58L28.94 8.61C28.94 7.53 29.33 7.18 30.04 7.18C30.67 7.18 31.11 7.53 31.11 8.39L31.11 8.65L34.10 8.65L34.10 8.44C34.10 5.94 32.72 4.56 30.04 4.56C27.37 4.56 26.00 5.94 26.00 8.44L26.00 11.70C26.00 14.20 27.37 15.57 30.04 15.57C32.72 15.57 34.10 14.20 34.10 11.70L34.10 11.37ZM43.18 12.00C43.18 10.77 42.56 10.01 41.73 9.65C42.32 9.23 42.57 8.58 42.57 7.76L42.57 7.66C42.55 5.47 41.51 4.73 38.79 4.73L35.36 4.73L35.36 15.40L39.26 15.40C42.01 15.40 43.18 14.38 43.18 12.11ZM40.40 12.17C40.40 12.95 40.15 13.23 39.45 13.23L38.02 13.23L38.02 11.13L39.42 11.13C40.12 11.13 40.40 11.37 40.40 12.08ZM38.02 6.90L38.91 6.90C39.65 6.90 39.94 7.13 39.94 7.84L39.94 7.92C39.94 8.71 39.69 9.02 38.98 9.02L38.02 9.02Z"></path></g><!----><g data-v-423bf9ae="" id="11adfb0f-6364-49ff-9776-e4dbaf58a88b" transform="matrix(2.994410458179972,0,0,2.994410458179972,0.08943266912044834,-1.9385669710569857)" stroke="none" fill="#245760"><path d="M17.572 23.933l4.106 7.095L32 13.189h-8.981V7.582L11.51.972 0 7.582v13.222l11.51 6.611 6.062-3.482zm10.96-8.744l-6.855 11.846-6.855-11.846h13.71z"></path></g><!----></svg>